<?xml version="1.0" encoding="utf-8"?>
<!-- Generator: Adobe Illustrator 23.1.1, SVG Export Plug-In . SVG Version: 6.00 Build 0)  -->
<svg version="1.1" id="Layer_1" xmlns="http://www.w3.org/2000/svg" xmlns:xlink="http://www.w3.org/1999/xlink" x="0px" y="0px"
	 viewBox="0 0 200 200" style="enable-background:new 0 0 200 200;" xml:space="preserve">
<style type="text/css">
	.st0{fill-rule:evenodd;clip-rule:evenodd;fill:#F5FBFF;}
	.st1{fill:#F5FBFF;}
</style>
<g>
	<path class="st0" d="M91.2,8.8c26.8,0,52.2,11.7,69.5,32.2l-38.8,38.8c-11.2-17-34-21.7-50.9-10.5s-21.7,34-10.5,50.9
		s34,21.7,50.9,10.5c4.2-2.8,7.8-6.3,10.5-10.5l38.8,38.8c-32.6,38.4-90.1,43.1-128.5,10.5S-10.9,79.4,21.7,41
		C39,20.6,64.4,8.8,91.2,8.8z"/>
	
		<rect x="147.5" y="78.2" transform="matrix(0.7071 -0.7071 0.7071 0.7071 -21.1489 148.9502)" class="st1" width="43.5" height="43.5"/>
</g>
</svg>
