<svg xmlns="http://www.w3.org/2000/svg" width="259.42" height="47.2" viewBox="0 0 259.42 47.2">
  <defs>
    <style>
      .cls-1, .cls-2 {
        fill: #008dff;
      }

      .cls-1 {
        fill-rule: evenodd;
      }

      .cls-3 {
        isolation: isolate;
      }

      .cls-4 {
        fill: #fff;
      }
    </style>
  </defs>
  <g id="Layer_2" data-name="Layer 2">
    <g id="Capa_1" data-name="Capa 1">
      <g>
        <g>
          <path class="cls-1" d="M23.62,0a23.57,23.57,0,0,1,18,8.33l-10.05,10a9.52,9.52,0,1,0,0,10.46l10.05,10A23.61,23.61,0,1,1,23.62,0Z"/>
          <rect class="cls-2" x="39.22" y="18.36" width="10.46" height="10.36" transform="translate(-3.62 38.34) rotate(-45.02)"/>
        </g>
        <g class="cls-3">
          <path class="cls-4" d="M61.9,23.54a9.35,9.35,0,0,1,1-4.29,9.79,9.79,0,0,1,2.45-3.1,10.42,10.42,0,0,1,3.35-1.87,11.54,11.54,0,0,1,3.63-.62,11.89,11.89,0,0,1,5.09,1.07,10.27,10.27,0,0,1,3.79,3l-3.31,2.89a7,7,0,0,0-1.06-1.05,7.54,7.54,0,0,0-1.31-.85A7.71,7.71,0,0,0,74,18.16,5.78,5.78,0,0,0,72.47,18a6.56,6.56,0,0,0-2.6.48A5.41,5.41,0,0,0,68,19.69a5.13,5.13,0,0,0-1.11,1.79,5.87,5.87,0,0,0-.37,2.07,5.79,5.79,0,0,0,.37,2A5.28,5.28,0,0,0,68,27.38a5.51,5.51,0,0,0,1.85,1.26,6.52,6.52,0,0,0,2.6.48,6.43,6.43,0,0,0,1.77-.23,6.78,6.78,0,0,0,1.46-.6,6.13,6.13,0,0,0,1.19-.86,8.5,8.5,0,0,0,1-1.05l3.31,2.89a11.11,11.11,0,0,1-3.83,3,11.36,11.36,0,0,1-5.07,1.13,11.54,11.54,0,0,1-3.63-.62,10.09,10.09,0,0,1-3.34-1.87,9.91,9.91,0,0,1-2.44-3.1A9.42,9.42,0,0,1,61.9,23.54Zm8.5,0a2.06,2.06,0,0,1,.56-1.5,2,2,0,0,1,1.51-.57,2,2,0,0,1,1.48.57,2.06,2.06,0,0,1,.56,1.5,1.92,1.92,0,0,1-2,2A2,2,0,0,1,71,25,1.94,1.94,0,0,1,70.4,23.56Z"/>
          <path class="cls-4" d="M84.25,25.84V22.13H94.66a2.58,2.58,0,0,0,1.91-.65,2,2,0,0,0,.64-1.42,2,2,0,0,0-.64-1.42A2.57,2.57,0,0,0,94.66,18H84.25V14.26H95.43a6.71,6.71,0,0,1,2.68.49A5.42,5.42,0,0,1,100,16.06a5.7,5.7,0,0,1,1.14,1.87,6.06,6.06,0,0,1,.38,2.13,6,6,0,0,1-.94,3.22,5.33,5.33,0,0,1-1.17,1.3,5.24,5.24,0,0,1-1.63.89l5.7,7.34H97.89l-4.9-7H84.25Z"/>
          <path class="cls-4" d="M109.31,14.27l7.31,10.94v7.6h-4.48V25.37l-8-11.1Zm10.15,0h5.22L118.88,22l-2.6-3.07Z"/>
          <path class="cls-4" d="M127.59,26.34V22.61h9.56a2,2,0,0,0,1.67-.72,2.55,2.55,0,0,0,.56-1.59,2.62,2.62,0,0,0-.13-.83,2.34,2.34,0,0,0-.41-.74,2,2,0,0,0-.7-.53,2.32,2.32,0,0,0-1-.2H127.6V14.27h10a6.35,6.35,0,0,1,2.66.52,5.61,5.61,0,0,1,1.91,1.36,5.87,5.87,0,0,1,1.14,1.93,6.52,6.52,0,0,1,.38,2.22,6.73,6.73,0,0,1-.38,2.22,5.87,5.87,0,0,1-1.14,1.93,5.39,5.39,0,0,1-1.91,1.36,6.54,6.54,0,0,1-2.66.52h-10Z"/>
          <path class="cls-4" d="M165.44,14.27V18H144.75V14.27Zm-12.58,6.62h4.48V32.81h-4.48Z"/>
          <path class="cls-4" d="M187.08,23.54a9.17,9.17,0,0,1-1,4.34,9.86,9.86,0,0,1-2.5,3.09,10.79,10.79,0,0,1-3.4,1.84,11.56,11.56,0,0,1-7.41,0A10.48,10.48,0,0,1,169.4,31a9.49,9.49,0,0,1-2.49-3.09,9.32,9.32,0,0,1-1-4.34,9.17,9.17,0,0,1,1-4.34,9.84,9.84,0,0,1,2.49-3.09,10.69,10.69,0,0,1,3.4-1.84,11.56,11.56,0,0,1,7.41,0,10.79,10.79,0,0,1,3.4,1.84,9.51,9.51,0,0,1,2.5,3.09A9.32,9.32,0,0,1,187.08,23.54Zm-4.58,0a5.44,5.44,0,0,0-.54-2.49,5.23,5.23,0,0,0-1.42-1.76,6.05,6.05,0,0,0-1.93-1.05,6.72,6.72,0,0,0-2.09-.34,7.2,7.2,0,0,0-2.11.34,6.15,6.15,0,0,0-1.95,1.05,5.22,5.22,0,0,0-2,4.25A5.37,5.37,0,0,0,171,26a5.29,5.29,0,0,0,1.42,1.75,5.94,5.94,0,0,0,1.95,1.05,6.89,6.89,0,0,0,2.11.34,6.67,6.67,0,0,0,2.09-.34,6,6,0,0,0,1.93-1.05,5.17,5.17,0,0,0,2-4.23Zm-8.06,0a2.06,2.06,0,0,1,.56-1.5,2,2,0,0,1,1.51-.57,2,2,0,0,1,1.48.57,2.06,2.06,0,0,1,.56,1.5,1.92,1.92,0,0,1-2,2A2,2,0,0,1,175,25,2,2,0,0,1,174.44,23.56Z"/>
          <path class="cls-4" d="M196.43,23.54a9.35,9.35,0,0,1,.95-4.29,9.79,9.79,0,0,1,2.45-3.1,10.42,10.42,0,0,1,3.35-1.87,11.54,11.54,0,0,1,3.63-.62,11.89,11.89,0,0,1,5.09,1.07,10.27,10.27,0,0,1,3.79,3l-3.31,2.89a7,7,0,0,0-1.06-1.05,7.54,7.54,0,0,0-1.31-.85,7.71,7.71,0,0,0-1.47-.57A5.78,5.78,0,0,0,207,18a6.56,6.56,0,0,0-2.6.48,5.51,5.51,0,0,0-1.85,1.26,5,5,0,0,0-1.11,1.79,5.87,5.87,0,0,0-.37,2.07,5.79,5.79,0,0,0,.37,2,5.28,5.28,0,0,0,1.11,1.79,5.51,5.51,0,0,0,1.85,1.26,6.75,6.75,0,0,0,5.83-.35,6.13,6.13,0,0,0,1.19-.86,8.5,8.5,0,0,0,1-1.05l3.31,2.89a11.11,11.11,0,0,1-3.83,3,11.36,11.36,0,0,1-5.07,1.13,11.54,11.54,0,0,1-3.63-.62,10.09,10.09,0,0,1-3.34-1.87,9.91,9.91,0,0,1-2.44-3.1A9.55,9.55,0,0,1,196.43,23.54Zm8.5,0a2.06,2.06,0,0,1,.56-1.5,2,2,0,0,1,1.51-.57,2,2,0,0,1,1.48.57,2.06,2.06,0,0,1,.56,1.5,1.92,1.92,0,0,1-2,2,2,2,0,0,1-1.51-.56A2,2,0,0,1,204.93,23.56Z"/>
          <path class="cls-4" d="M218.79,14.27h4.48l15.87,18.54-5.06,0L223.27,20V32.8h-4.48Zm15.86,0h4.48V27.86l-4.48-5Z"/>
          <path class="cls-4" d="M243.07,14.27h4.48V32.81h-4.48Zm16.35,14.8V32.8h-8.34V29.07Z"/>
        </g>
      </g>
    </g>
  </g>
</svg>
