<svg xmlns="http://www.w3.org/2000/svg" viewBox="0 0 512 512"><defs><style>.cls-1{fill:#008eff;}.cls-2,.cls-3{fill:#fff;}.cls-2{fill-rule:evenodd;}.cls-3{stroke:#fff;stroke-miterlimit:10;stroke-width:6px;}</style></defs><g id="Capa_2" data-name="Capa 2"><g id="Capa_1-2" data-name="Capa 1"><circle class="cls-1" cx="256" cy="256" r="256"/><path class="cls-2" d="M424.36,237.55q0-6.84-6.81-6.84H394.21c-4.54,0-7.47-2.27-8.76-6.82q-10.69-33.16-45.72-55.6c-2.59-1.29-3.89-3.9-3.89-7.8q1-13.67-.48-19.52a44.54,44.54,0,0,0-2.44-7.79,29.68,29.68,0,0,0-5.35,3.89q-3.4,2.93-7.29,12.69-2.92,6.83-10.71,4.87a153.16,153.16,0,0,0-46.68-6.82q-46.69,0-80.74,22.91t-43.77,57.07v2a61.49,61.49,0,0,0-2.93,19.52,84.6,84.6,0,0,0,12.65,44.37q12.65,21,36,35.61A9.26,9.26,0,0,1,188,337v35.11q0,6.83,6.82,6.83h33.07c4.53,0,6.81-2.28,6.81-6.83V358.5a6.59,6.59,0,0,1,2.91-5.86,9.33,9.33,0,0,1,6.81-2.92,47.94,47.94,0,0,0,9.24,1h24.81q4.86,0,5.84,1.95a9.36,9.36,0,0,1,2.91,6.84v12.67c0,4.55,2.28,6.83,6.81,6.83h33.07q6.82,0,6.82-6.83V338q0-4.87,4.86-6.82a124.71,124.71,0,0,0,22.86-18.05,107.47,107.47,0,0,0,17-21.95q2.92-5.85,9.73-3.9h29.18q6.81,0,6.81-6.82Zm-311.28-59.5c2-2,3.86-3.74,4.86-5.86,1.3-2.77-.53-2.45-1-1.95A42.06,42.06,0,0,0,113.08,178.05Zm304.47,35.11q10.71,0,17.51,6.83t6.81,17.56v42.92q0,10.72-6.81,17.55t-17.51,6.83H390.31q-13.6,23.4-38.9,38v29.26q0,10.74-6.82,17.56t-17.51,6.83H294q-10.69,0-17.51-6.83t-6.8-17.56v-3.9a27.31,27.31,0,0,1-8.76.49,71.92,71.92,0,0,0-8.75-.49v3.9q0,10.74-6.81,17.56t-17.51,6.83H194.8q-10.71,0-17.51-6.83t-6.82-17.56V340.93q-25.29-16.57-38.9-40.47a101.74,101.74,0,0,1-13.63-51.2,87.8,87.8,0,0,1,2-16.6q-13.62-5.85-19.46-17.55a55.57,55.57,0,0,1-4.86-12.67q-8.76-2-13.61-6.84-14.59-12.67-11.19-27.31T80,145.86q5.83-5.85,12.65-1c5.19,3.9,3.88,6.48,1,11.71-1.13,2-2.28,4.7-4.86,10.24s-1.3,10.57,3.89,15.11c.64,0,1.29,1,2,1,0-4.55,1.35-8.6,2.91-12.68a38.82,38.82,0,0,1,8.27-13.65,13.19,13.19,0,0,1,8.26-3.91c6.51-.4,12.65,2.28,18.49,8.78q5.84,10.74,0,20.48-9.72,14.64-19.46,18.54c.65,1.3.15,2.36,2,5.85a22.22,22.22,0,0,0,8.75,8.78q13.62-37.06,52-61t87.07-23.89a176.2,176.2,0,0,1,44.74,5.85q11.67-22.44,28.21-20.48,12.66,1.95,15.57,16.58t1.95,24.39Q386.42,178,400,213.16ZM337.78,220q15.57,0,15.58,15.61t-15.58,15.6a16.83,16.83,0,0,1-11.66-4.39,15.35,15.35,0,0,1,0-22.43A16.78,16.78,0,0,1,337.78,220Zm-55.44-61.45q9.72,0,7.78,8.77a7.87,7.87,0,0,1-2.92,6.35,9.15,9.15,0,0,1-5.84,2.44,143,143,0,0,0-64.19,6.82h-2.93c-3.88,0-6.81-1.95-8.74-5.85a8.77,8.77,0,0,1,.48-6.35,7.48,7.48,0,0,1,5.35-4.38A165.22,165.22,0,0,1,282.34,158.54Z"/><path class="cls-3" d="M272.71,233.6c-2.21-6.62-9-14.22-21-15.87v-7.84a4.88,4.88,0,1,0-9.75,0v8c-10,1.93-17.68,9.67-18.7,19.51-1,9.18,4.4,21.25,22.58,25.05,9.88,2.07,15.58,7.63,14.87,14.51-.58,5.59-5.53,11.24-13.88,11.24-9.9,0-15.13-5.14-16.61-9.54a4.88,4.88,0,1,0-9.25,3.09c2.22,6.63,9,14.22,21,15.87v7.85a4.88,4.88,0,1,0,9.75,0v-8c10-1.93,17.68-9.67,18.7-19.51.95-9.18-4.39-21.25-22.57-25.06-9.89-2.07-15.59-7.63-14.87-14.5.58-5.59,5.53-11.25,13.87-11.25,9.91,0,15.14,5.14,16.61,9.55a4.88,4.88,0,0,0,9.25-3.1Z"/></g></g></svg>