<svg xmlns="http://www.w3.org/2000/svg" viewBox="0 0 512 512"><defs><style>.cls-1{fill:#008eff;}.cls-2{fill:none;stroke-width:17px;}.cls-2,.cls-4{stroke:#fff;stroke-miterlimit:10;}.cls-3,.cls-4{fill:#fff;}.cls-4{stroke-width:6px;}</style></defs><g id="Capa_2" data-name="Capa 2"><g id="Capa_1-2" data-name="Capa 1"><circle class="cls-1" cx="256" cy="256" r="256"/><circle class="cls-2" cx="249.21" cy="256" r="150.65"/><polygon class="cls-3" points="374.41 304.4 374.41 217.97 338.53 217.97 399.86 111.75 461.19 217.97 425.31 217.97 425.31 304.4 374.41 304.4"/><path class="cls-1" d="M399.86,128.74l46.61,80.73H416.81V295.9h-33.9V209.47H353.25l46.61-80.73m0-34-14.72,25.5L338.53,201l-14.72,25.5h42.1V312.9h67.9V226.47h42.1L461.19,201l-46.61-80.73-14.72-25.5Z"/><path class="cls-4" d="M293.65,214.64c-3.8-11.38-15.42-24.43-36.06-27.27V173.89a8.38,8.38,0,1,0-16.76,0v13.73c-17.14,3.32-30.37,16.62-32.13,33.52-1.63,15.77,7.55,36.52,38.79,43.06,17,3.56,26.78,13.11,25.55,24.92-1,9.61-9.5,19.32-23.84,19.32-17,0-26-8.83-28.54-16.39a8.38,8.38,0,0,0-15.89,5.31c3.81,11.38,15.43,24.43,36.06,27.25v13.5a8.38,8.38,0,1,0,16.76,0V324.38c17.14-3.32,30.37-16.62,32.13-33.52,1.63-15.77-7.55-36.52-38.79-43.06-17-3.56-26.78-13.11-25.55-24.92,1-9.61,9.5-19.32,23.84-19.32,17,0,26,8.83,28.54,16.39a8.38,8.38,0,1,0,15.89-5.31Z"/></g></g></svg>