<?xml version="1.0" encoding="utf-8"?>
<!-- Generator: Adobe Illustrator 23.1.1, SVG Export Plug-In . SVG Version: 6.00 Build 0)  -->
<svg version="1.1" id="Layer_1" xmlns="http://www.w3.org/2000/svg" xmlns:xlink="http://www.w3.org/1999/xlink" x="0px" y="0px"
	 viewBox="0 0 50 50" style="enable-background:new 0 0 50 50;" xml:space="preserve">
<style type="text/css">
	.st0{fill:#FFFFFF;}
</style>
<path class="st0" d="M23.6,1.9c0.9,0,1.8,0,2.7,0c0.1,0,0.2,0.1,0.3,0.1c2,0.1,3.9,0.5,5.7,1.2c8.2,3.1,13.3,9,15,17.6
	c0.2,0.9,0.2,1.9,0.4,2.9c0,0.6,0,1.1,0,1.7c-0.1,0.7-0.1,1.5-0.2,2.2c-0.4,2.9-1.3,5.5-2.7,8c-0.1,0.2-0.1,0.5-0.1,0.7
	c0.7,2.5,1.3,4.9,2,7.3c0.3,1.2,0.7,2.4,1,3.6v0.1c-0.2,0-0.3,0-0.5-0.1c-3.3-1-6.6-2-9.9-3.1c-0.4-0.1-0.7-0.1-1,0.1
	c-2.8,1.6-5.8,2.7-9.1,3c-0.5,0-1,0.1-1.5,0.2c-0.6,0-1.1,0-1.7,0c-0.1,0-0.3-0.1-0.4-0.1c-4-0.2-7.7-1.5-11.1-3.7
	C7.1,40,3.8,35,2.6,28.6c-0.2-0.9-0.2-1.7-0.4-2.6c0-0.9,0-1.8,0-2.7c0-0.1,0.1-0.3,0.1-0.4C2.6,19.4,3.6,16,5.4,13
	C9,7.1,14.2,3.5,21,2.2C21.9,2.1,22.8,2,23.6,1.9z M43.8,43.3c0-0.2-0.1-0.3-0.1-0.4c-0.6-2.2-1.2-4.3-1.8-6.5
	c-0.2-0.7-0.1-1.2,0.2-1.8c1.5-2.6,2.5-5.4,2.8-8.4c0.3-3.9-0.4-7.5-2.2-10.9C39.1,8.7,33.4,5.1,25.9,4.6c-4-0.3-7.7,0.8-11.2,2.8
	c-7.3,4.3-11.2,13-9.4,21.2c1.5,6.8,5.4,11.7,11.8,14.5c4.2,1.9,8.6,2.1,13,0.9c2.1-0.6,4-1.5,5.9-2.7c0.3-0.2,0.5-0.2,0.8-0.1
	c1.2,0.4,2.4,0.8,3.6,1.1C41.5,42.6,42.6,43,43.8,43.3z"/>
<path class="st0" d="M39.5,24.6c0,8.1-6.5,14.6-14.6,14.6s-14.7-6.6-14.7-14.6c0-8.1,6.6-14.6,14.7-14.6
	C32.9,10,39.5,16.6,39.5,24.6z M21,22c0,1.8,0,3.5,0,5.3c2.6,0,5.2,0,7.8,0c0-1.8,0-3.5,0-5.3C26.2,22,23.7,22,21,22z M28.5,19.3
	c-0.1-0.4-0.1-0.7-0.2-1.1c-0.4-1.6-0.9-3.2-1.9-4.6c-1-1.3-1.8-1.3-2.8,0c-1.2,1.7-1.7,3.6-2.1,5.6C23.8,19.3,26.1,19.3,28.5,19.3z
	 M21.4,29.9c0.1,0.4,0.2,0.8,0.2,1.1c0.4,1.6,0.9,3.1,1.8,4.4c1,1.4,1.9,1.4,2.9,0c0.8-1.2,1.3-2.5,1.7-3.8c0.1-0.6,0.3-1.1,0.4-1.7
	C26.1,29.9,23.8,29.9,21.4,29.9z M18.3,21.9c-1.7,0-3.5,0-5.2,0c-0.4,1.8-0.4,3.5,0,5.3c1.8,0,3.5,0,5.2,0
	C18.3,25.5,18.3,23.7,18.3,21.9z M31.6,27.2c1.7,0,3.3,0,4.9,0c0.4-1.8,0.4-3.5,0-5.3c-1.7,0-3.3,0-4.9,0
	C31.6,23.7,31.6,25.5,31.6,27.2z M20.4,13.5c-2.8,1.1-4.9,3-6.3,5.7c1.6,0,3.1,0,4.6,0C19.1,17.3,19.6,15.4,20.4,13.5z M18.7,30
	c-1.5,0-3,0-4.6,0c1.3,2.8,4.4,5.2,6.3,5.7C19.6,33.9,19.1,31.9,18.7,30z M35.5,19.3c-1.4-2.6-3.3-4.5-6.1-5.7
	c0.9,1.9,1.4,3.8,1.8,5.7C32.6,19.3,34.1,19.3,35.5,19.3z M35.5,29.9c-1.5,0-2.9,0-4.2,0c-0.6,1.9-1.1,3.8-1.7,5.6
	C32.2,34.4,34.2,32.5,35.5,29.9z"/>
</svg>
