<?xml version="1.0" encoding="utf-8"?>
<!-- Generator: Adobe Illustrator 23.1.1, SVG Export Plug-In . SVG Version: 6.00 Build 0)  -->
<svg version="1.1" id="Layer_1" xmlns="http://www.w3.org/2000/svg" xmlns:xlink="http://www.w3.org/1999/xlink" x="0px" y="0px" viewBox="0 0 60 56.7" style="enable-background:new 0 0 60 56.7;" xml:space="preserve">
	<style type="text/css">	.st0{fill:url(#SVGID_1_);} </style>
	<linearGradient id="SVGID_1_" gradientUnits="userSpaceOnUse" x1="29.5692" y1="0.1065" x2="29.5692" y2="56.5276">
		<stop  offset="0" style="stop-color:#01ADFF"/>
		<stop  offset="1" style="stop-color:#6A37FF"/>
	</linearGradient>
	<path class="st0" d="M23.9,56.5c-2.9,0-5.9-0.7-8.7-2.2C9.2,51.1,5.5,45,5.5,38.1V17.5c0-6.9,3.9-12.9,10.1-15.8
		C21.9-1.2,29-0.1,34.2,4.4l12.9,11.1c4.5,4,6.9,9.7,6.5,15.7c-0.4,6-3.5,11.4-8.5,14.7l-10.9,7.4C31,55.5,27.5,56.5,23.9,56.5z
			M10.6,18.6v19.5c0,5,2.6,9.4,7.1,11.7c4.4,2.3,9.5,2.1,13.7-0.7l10.9-7.4c3.7-2.5,5.9-6.4,6.2-10.9c0.3-4.4-1.5-8.6-4.8-11.6
		L30.9,8.2C27.2,5,22.2,4.3,17.8,6.3c-0.7,0.3-1.4,0.7-2.1,1.2c2.8-0.3,5.7,0.6,8,2.5l15.9,12.9c2.1,1.7,3.3,4.3,3.2,7.1
		c-0.1,2.8-1.5,5.2-3.8,6.8l-10.5,7c-2.4,1.6-5.5,1.8-8.1,0.4c-2.6-1.4-4.2-4-4.2-6.9V17.8l18.8,15.1c0.1,0.1,0.2,0.1,0.2,0.2
		l0.8-0.5c0.9-0.6,1.5-1.6,1.6-2.8c0.1-1.1-0.4-2.2-1.3-2.9L20.5,13.9c-1.9-1.5-4.3-1.8-6.4-0.8C11.9,14.2,10.6,16.2,10.6,18.6z
			M21.3,28.4v8.9c0,1,0.5,1.9,1.5,2.4c0.9,0.5,2,0.4,2.8-0.1l5.3-3.6L21.3,28.4z"/>
</svg>
