<?xml version="1.0" encoding="utf-8"?>
<!-- Generator: Adobe Illustrator 23.1.1, SVG Export Plug-In . SVG Version: 6.00 Build 0)  -->
<svg version="1.1" id="Capa_1" xmlns="http://www.w3.org/2000/svg" xmlns:xlink="http://www.w3.org/1999/xlink" x="0px" y="0px"
	 viewBox="0 0 200 113.341" style="enable-background:new 0 0 200 113.341;" xml:space="preserve">
<style type="text/css">
	.st0{fill:#CECECE;}
	.st1{fill:#163679;}
	.st2{fill:#1C72DF;}
	.st3{fill:#F3BA40;}
</style>
<path class="st0" d="M152.084,42.836v-1.5c0-2.9-2.4-5.3-5.3-5.3H53.518c-2.9,0-5.3,2.4-5.3,5.3v1.4h-1.1l1.6,2.7l1.6-2.7h-1.1v-1.4
	c0-2.4,1.9-4.3,4.3-4.3h93.266c2.4,0,4.3,1.9,4.3,4.3v1.5h-1.1l1.6,2.6l1.5-2.6H152.084z"/>
<g transform="translate(0, 0)">
	<path class="st1" d="M102.5,18.636h-5.3c-4.4,0-7.9,3.5-7.9,7.9l0,0c0,0,4,1.8,10.6,1.8s10.6-1.8,10.6-1.8l0,0
		C110.4,22.136,106.8,18.636,102.5,18.636z"/>
	<path class="st1" d="M93.7,8.036c0-3.4,2.8-6.2,6.2-6.2s6.1,2.8,6.1,6.2s-2.8,7-6.2,7S93.7,11.436,93.7,8.036z"/>
</g>
<g transform="translate(0, 0)">
	<path class="st1" d="M153.574,60.436h-3.6c-3,0-5.3,2.4-5.3,5.3l0,0c0,0,2.7,1.2,7.1,1.2c4.5,0,7.1-1.2,7.1-1.2l0,0
		C158.974,62.836,156.574,60.436,153.574,60.436z"/>
	<path class="st1" d="M147.674,53.336c0-2.3,1.9-4.2,4.2-4.2s4.2,1.9,4.2,4.2s-1.9,4.8-4.2,4.8
		C149.574,58.136,147.674,55.636,147.674,53.336z"/>
</g>
<g transform="translate(0, 0)">
	<path class="st1" d="M50.413,60.436h-3.6c-3,0-5.3,2.4-5.3,5.3l0,0c0,0,2.7,1.2,7.1,1.2s7.1-1.2,7.1-1.2l0,0
		C55.713,62.836,53.313,60.436,50.413,60.436z"/>
	<path class="st1" d="M44.413,53.336c0-2.3,1.9-4.2,4.2-4.2s4.2,1.9,4.2,4.2s-1.9,4.8-4.2,4.8
		C46.313,58.136,44.413,55.636,44.413,53.336z"/>
</g>
<g transform="translate(0, 0)">
	<path class="st1" d="M102.067,60.436h-3.6c-3,0-5.3,2.4-5.3,5.3l0,0c0,0,2.7,1.2,7.1,1.2s7.1-1.2,7.1-1.2l0,0
		C107.367,62.836,104.967,60.436,102.067,60.436z"/>
	<path class="st1" d="M96.067,53.336c0-2.3,1.9-4.2,4.2-4.2s4.2,1.9,4.2,4.2s-1.9,4.8-4.2,4.8
		C97.967,58.136,96.067,55.636,96.067,53.336z"/>
</g>
<g>
	<path class="st0" d="M54.486,81.419v-1.488c0-2.877-2.381-5.259-5.259-5.259h-0.595v-4.564h-0.992v4.564h-35.54
		c-2.877,0-5.259,2.381-5.259,5.259v1.389H5.749l1.588,2.679l1.588-2.679H7.832v-1.389c0-2.381,1.885-4.267,4.267-4.267h18.173
		v5.646h-1.1l1.6,2.7l1.6-2.7h-1.1v-5.646h17.955c2.381,0,4.267,1.885,4.267,4.267v1.488h-1.091l1.588,2.58l1.488-2.58H54.486z"/>
	<g transform="translate(0, 0)">
		<path class="st2" d="M8.833,98.386H5.261c-2.977,0-5.259,2.381-5.259,5.259l0,0c0,0,2.679,1.191,7.045,1.191
			s7.045-1.191,7.045-1.191l0,0C14.092,100.768,11.711,98.386,8.833,98.386z"/>
		<path class="st2" d="M2.88,91.342c0-2.282,1.885-4.167,4.167-4.167s4.167,1.885,4.167,4.167s-1.885,4.763-4.167,4.763
			S2.88,93.624,2.88,91.342z"/>
	</g>
	<g transform="translate(0, 0)">
		<path class="st2" d="M32.453,98.386h-3.572c-2.977,0-5.259,2.381-5.259,5.259l0,0c0,0,2.679,1.191,7.045,1.191
			s7.045-1.191,7.045-1.191l0,0C37.712,100.768,35.331,98.386,32.453,98.386z"/>
		<path class="st2" d="M26.5,91.342c0-2.282,1.885-4.167,4.167-4.167c2.282,0,4.167,1.885,4.167,4.167s-1.885,4.763-4.167,4.763
			C28.385,96.104,26.5,93.624,26.5,91.342z"/>
	</g>
	<g transform="translate(0, 0)">
		<path class="st2" d="M55.073,98.386h-3.572c-2.977,0-5.259,2.381-5.259,5.259l0,0c0,0,2.679,1.191,7.045,1.191
			s7.045-1.191,7.045-1.191l0,0C60.332,100.768,57.951,98.386,55.073,98.386z"/>
		<path class="st2" d="M49.12,91.342c0-2.282,1.885-4.167,4.167-4.167c2.282,0,4.167,1.885,4.167,4.167
			c0,2.282-1.885,4.763-4.167,4.763S49.12,93.624,49.12,91.342z"/>
	</g>
</g>
<g>
	<path class="st0" d="M123.775,81.431v-1.488c0-2.877-2.381-5.259-5.259-5.259H81.13c-2.877,0-5.259,2.381-5.259,5.259v1.389H74.78
		l1.588,2.679l1.588-2.679h-1.091v-1.389c0-2.381,1.885-4.267,4.267-4.267h37.386c2.381,0,4.267,1.885,4.267,4.267v1.488h-1.091
		l1.588,2.58l1.488-2.58H123.775z"/>
	<polygon class="st0" points="99.274,81.311 98.174,81.311 99.774,84.011 101.374,81.311 100.274,81.311 100.274,69.734 
		99.274,69.734 	"/>
	<g transform="translate(0, 0)">
		<path class="st2" d="M78.124,98.386h-3.572c-2.977,0-5.259,2.381-5.259,5.259l0,0c0,0,2.679,1.191,7.045,1.191
			s7.045-1.191,7.045-1.191l0,0C83.383,100.768,81.001,98.386,78.124,98.386z"/>
		<path class="st2" d="M72.171,91.342c0-2.282,1.885-4.167,4.167-4.167s4.167,1.885,4.167,4.167s-1.885,4.763-4.167,4.763
			S72.171,93.624,72.171,91.342z"/>
	</g>
	<g transform="translate(0, 0)">
		<path class="st2" d="M101.744,98.386h-3.572c-2.977,0-5.259,2.381-5.259,5.259l0,0c0,0,2.679,1.191,7.045,1.191
			s7.045-1.191,7.045-1.191l0,0C107.003,100.768,104.621,98.386,101.744,98.386z"/>
		<path class="st2" d="M95.79,91.342c0-2.282,1.885-4.167,4.167-4.167s4.167,1.885,4.167,4.167s-1.885,4.763-4.167,4.763
			S95.79,93.624,95.79,91.342z"/>
	</g>
	<g transform="translate(0, 0)">
		<path class="st2" d="M125.364,98.386h-3.572c-2.977,0-5.259,2.381-5.259,5.259l0,0c0,0,2.679,1.191,7.045,1.191
			c4.366,0,7.045-1.191,7.045-1.191l0,0C130.623,100.768,128.241,98.386,125.364,98.386z"/>
		<path class="st2" d="M119.41,91.342c0-2.282,1.885-4.167,4.167-4.167s4.167,1.885,4.167,4.167c0,2.282-1.885,4.763-4.167,4.763
			C121.296,96.104,119.41,93.624,119.41,91.342z"/>
	</g>
</g>
<g>
	<path class="st0" d="M192.982,81.32v-1.389c0-2.877-2.381-5.259-5.259-5.259h-35.447v-4.564h-0.992v4.564h-0.595
		c-2.877,0-5.259,2.381-5.259,5.259v1.488h-0.992l1.488,2.58l1.588-2.58h-1.091v-1.488c0-2.381,1.885-4.267,4.267-4.267h17.754
		v5.646h-1.1l1.6,2.7l1.6-2.7h-1.1v-5.646h18.281c2.381,0,4.267,1.885,4.267,4.267v1.389h-1.091l1.588,2.679l1.588-2.679H192.982z"
		/>
	<g transform="translate(0, 0)">
		<path class="st2" d="M185.824,103.645L185.824,103.645c0,0,2.679,1.191,7.045,1.191s7.045-1.191,7.045-1.191l0,0
			c0-2.877-2.282-5.259-5.259-5.259h-3.572C188.205,98.386,185.824,100.768,185.824,103.645z"/>
		<path class="st2" d="M192.868,96.104c-2.282,0-4.167-2.481-4.167-4.763s1.885-4.167,4.167-4.167c2.282,0,4.167,1.885,4.167,4.167
			S195.15,96.104,192.868,96.104z"/>
	</g>
	<g transform="translate(0, 0)">
		<path class="st2" d="M162.204,103.645L162.204,103.645c0,0,2.679,1.191,7.045,1.191s7.045-1.191,7.045-1.191l0,0
			c0-2.877-2.282-5.259-5.259-5.259h-3.572C164.585,98.386,162.204,100.768,162.204,103.645z"/>
		<path class="st2" d="M169.248,96.104c-2.282,0-4.167-2.481-4.167-4.763s1.885-4.167,4.167-4.167c2.282,0,4.167,1.885,4.167,4.167
			S171.53,96.104,169.248,96.104z"/>
	</g>
	<g transform="translate(0, 0)">
		<path class="st2" d="M138.584,103.645L138.584,103.645c0,0,2.679,1.191,7.045,1.191s7.045-1.191,7.045-1.191l0,0
			c0-2.877-2.282-5.259-5.259-5.259h-3.572C140.965,98.386,138.584,100.768,138.584,103.645z"/>
		<path class="st2" d="M145.628,96.104c-2.282,0-4.167-2.481-4.167-4.763c0-2.282,1.885-4.167,4.167-4.167s4.167,1.885,4.167,4.167
			S147.911,96.104,145.628,96.104z"/>
	</g>
</g>
<polygon class="st0" points="99.124,42.736 98.024,42.736 99.624,45.436 101.224,42.736 100.124,42.736 100.124,31.325 
	99.124,31.325 "/>
<g>
	<circle class="st3" cx="110.709" cy="62.057" r="6.235"/>
	<g>
		<path class="st1" d="M108.491,63.792v-2.761h-0.637v-0.8l1.407-0.005v3.566H108.491z"/>
		<path class="st1" d="M110.069,61.606c-0.172-0.152-0.258-0.353-0.258-0.6c0-0.247,0.086-0.447,0.258-0.6
			c0.172-0.152,0.397-0.229,0.677-0.229s0.505,0.076,0.675,0.229c0.17,0.153,0.256,0.353,0.256,0.6c0,0.248-0.086,0.448-0.256,0.6
			c-0.17,0.153-0.396,0.229-0.675,0.229S110.241,61.759,110.069,61.606z M110.984,61.259c0.06-0.065,0.09-0.15,0.09-0.253
			c0-0.106-0.03-0.191-0.09-0.255c-0.06-0.064-0.137-0.096-0.233-0.096c-0.103,0-0.184,0.031-0.243,0.094s-0.09,0.149-0.09,0.258
			c0,0.106,0.031,0.191,0.092,0.255c0.062,0.064,0.142,0.097,0.241,0.097C110.847,61.358,110.924,61.325,110.984,61.259z
			 M113.131,60.178l-2.145,3.663l-0.525-0.005l2.145-3.658H113.131z M112.184,63.611c-0.172-0.153-0.258-0.353-0.258-0.6
			s0.086-0.448,0.258-0.603s0.397-0.231,0.678-0.231c0.279,0,0.504,0.077,0.674,0.231c0.171,0.154,0.256,0.355,0.256,0.603
			s-0.085,0.447-0.256,0.6c-0.17,0.152-0.395,0.229-0.674,0.229C112.582,63.84,112.356,63.764,112.184,63.611z M113.095,63.264
			c0.06-0.066,0.089-0.15,0.089-0.253c0-0.109-0.029-0.196-0.089-0.26c-0.06-0.064-0.138-0.096-0.233-0.096
			c-0.101,0-0.181,0.032-0.241,0.096c-0.062,0.064-0.092,0.151-0.092,0.26c0,0.103,0.03,0.187,0.092,0.253
			c0.061,0.066,0.141,0.099,0.241,0.099C112.958,63.363,113.036,63.33,113.095,63.264z"/>
	</g>
</g>
<g>
	<circle class="st3" cx="162.627" cy="62.057" r="6.235"/>
	<g>
		<path class="st1" d="M160.409,63.792v-2.761h-0.637v-0.8l1.407-0.005v3.566H160.409z"/>
		<path class="st1" d="M161.987,61.606c-0.172-0.152-0.258-0.353-0.258-0.6c0-0.247,0.086-0.447,0.258-0.6
			c0.172-0.152,0.397-0.229,0.677-0.229s0.505,0.076,0.675,0.229c0.17,0.153,0.256,0.353,0.256,0.6c0,0.248-0.086,0.448-0.256,0.6
			c-0.17,0.153-0.396,0.229-0.675,0.229S162.159,61.759,161.987,61.606z M162.902,61.259c0.06-0.065,0.09-0.15,0.09-0.253
			c0-0.106-0.03-0.191-0.09-0.255c-0.06-0.064-0.137-0.096-0.233-0.096c-0.103,0-0.184,0.031-0.243,0.094s-0.09,0.149-0.09,0.258
			c0,0.106,0.031,0.191,0.092,0.255c0.062,0.064,0.142,0.097,0.241,0.097C162.765,61.358,162.842,61.325,162.902,61.259z
			 M165.049,60.178l-2.145,3.663l-0.525-0.005l2.145-3.658H165.049z M164.102,63.611c-0.172-0.153-0.258-0.353-0.258-0.6
			s0.086-0.448,0.258-0.603s0.397-0.231,0.678-0.231c0.279,0,0.504,0.077,0.674,0.231c0.171,0.154,0.256,0.355,0.256,0.603
			s-0.085,0.447-0.256,0.6c-0.17,0.152-0.395,0.229-0.674,0.229C164.5,63.84,164.274,63.764,164.102,63.611z M165.013,63.264
			c0.06-0.066,0.089-0.15,0.089-0.253c0-0.109-0.029-0.196-0.089-0.26c-0.06-0.064-0.138-0.096-0.233-0.096
			c-0.101,0-0.181,0.032-0.241,0.096c-0.062,0.064-0.092,0.151-0.092,0.26c0,0.103,0.03,0.187,0.092,0.253
			c0.061,0.066,0.141,0.099,0.241,0.099C164.876,63.363,164.954,63.33,165.013,63.264z"/>
	</g>
</g>
<g>
	<circle class="st3" cx="59.638" cy="62.057" r="6.235"/>
	<g>
		<path class="st1" d="M57.42,63.792v-2.761h-0.637v-0.8l1.407-0.005v3.566H57.42z"/>
		<path class="st1" d="M58.998,61.606c-0.172-0.152-0.258-0.353-0.258-0.6c0-0.247,0.086-0.447,0.258-0.6
			c0.172-0.152,0.397-0.229,0.677-0.229s0.505,0.076,0.675,0.229c0.17,0.153,0.256,0.353,0.256,0.6c0,0.248-0.086,0.448-0.256,0.6
			c-0.17,0.153-0.396,0.229-0.675,0.229S59.17,61.759,58.998,61.606z M59.913,61.259c0.06-0.065,0.09-0.15,0.09-0.253
			c0-0.106-0.03-0.191-0.09-0.255c-0.06-0.064-0.137-0.096-0.233-0.096c-0.103,0-0.184,0.031-0.243,0.094s-0.09,0.149-0.09,0.258
			c0,0.106,0.031,0.191,0.092,0.255c0.062,0.064,0.142,0.097,0.241,0.097C59.777,61.358,59.854,61.325,59.913,61.259z
			 M62.061,60.178l-2.145,3.663l-0.525-0.005l2.145-3.658H62.061z M61.114,63.611c-0.172-0.153-0.258-0.353-0.258-0.6
			s0.086-0.448,0.258-0.603s0.397-0.231,0.678-0.231c0.279,0,0.504,0.077,0.674,0.231c0.171,0.154,0.256,0.355,0.256,0.603
			s-0.085,0.447-0.256,0.6c-0.17,0.152-0.395,0.229-0.674,0.229C61.511,63.84,61.285,63.764,61.114,63.611z M62.025,63.264
			c0.06-0.066,0.089-0.15,0.089-0.253c0-0.109-0.029-0.196-0.089-0.26c-0.06-0.064-0.138-0.096-0.233-0.096
			c-0.101,0-0.181,0.032-0.241,0.096c-0.062,0.064-0.092,0.151-0.092,0.26c0,0.103,0.03,0.187,0.092,0.253
			c0.061,0.066,0.141,0.099,0.241,0.099C61.887,63.363,61.965,63.33,62.025,63.264z"/>
	</g>
</g>
<g>
	<circle class="st3" cx="7.031" cy="107.741" r="4.7"/>
	<g>
		<path class="st1" d="M4.798,109.487v-2.779H4.157v-0.806l1.416-0.005v3.59H4.798z"/>
		<path class="st1" d="M6.387,107.287c-0.173-0.153-0.259-0.355-0.259-0.604c0-0.249,0.086-0.45,0.259-0.604
			c0.173-0.153,0.4-0.23,0.681-0.23c0.281,0,0.508,0.077,0.679,0.23c0.171,0.154,0.258,0.355,0.258,0.604
			c0,0.249-0.086,0.451-0.258,0.604c-0.171,0.154-0.398,0.23-0.679,0.23C6.787,107.518,6.56,107.441,6.387,107.287z M7.308,106.938
			c0.06-0.066,0.09-0.151,0.09-0.255c0-0.107-0.03-0.192-0.09-0.257c-0.06-0.064-0.138-0.097-0.235-0.097
			c-0.103,0-0.185,0.031-0.245,0.094c-0.06,0.063-0.09,0.15-0.09,0.259c0,0.107,0.031,0.193,0.092,0.257
			c0.062,0.065,0.143,0.097,0.243,0.097C7.17,107.038,7.248,107.004,7.308,106.938z M9.469,105.849l-2.158,3.686l-0.529-0.005
			l2.158-3.682H9.469z M8.516,109.305c-0.173-0.154-0.259-0.355-0.259-0.604s0.086-0.451,0.259-0.606
			c0.173-0.155,0.4-0.232,0.682-0.232c0.281,0,0.507,0.077,0.678,0.232c0.172,0.155,0.258,0.357,0.258,0.606
			s-0.086,0.45-0.258,0.604c-0.171,0.153-0.397,0.23-0.678,0.23C8.916,109.536,8.689,109.459,8.516,109.305z M9.433,108.956
			c0.06-0.066,0.089-0.151,0.089-0.255c0-0.11-0.029-0.197-0.089-0.262c-0.06-0.064-0.139-0.097-0.235-0.097
			c-0.101,0-0.182,0.032-0.243,0.097c-0.062,0.065-0.092,0.152-0.092,0.262c0,0.104,0.03,0.188,0.092,0.255
			c0.061,0.066,0.142,0.1,0.243,0.1C9.294,109.056,9.373,109.022,9.433,108.956z"/>
	</g>
</g>
<g>
	<circle class="st3" cx="30.277" cy="107.741" r="4.7"/>
	<g>
		<path class="st1" d="M28.044,109.487v-2.779h-0.641v-0.806l1.416-0.005v3.59H28.044z"/>
		<path class="st1" d="M29.633,107.287c-0.173-0.153-0.259-0.355-0.259-0.604c0-0.249,0.086-0.45,0.259-0.604
			c0.173-0.153,0.4-0.23,0.681-0.23s0.508,0.077,0.679,0.23c0.171,0.154,0.258,0.355,0.258,0.604c0,0.249-0.086,0.451-0.258,0.604
			c-0.171,0.154-0.398,0.23-0.679,0.23S29.806,107.441,29.633,107.287z M30.554,106.938c0.06-0.066,0.09-0.151,0.09-0.255
			c0-0.107-0.03-0.192-0.09-0.257c-0.06-0.064-0.138-0.097-0.235-0.097c-0.103,0-0.185,0.031-0.245,0.094
			c-0.06,0.063-0.09,0.15-0.09,0.259c0,0.107,0.031,0.193,0.092,0.257c0.062,0.065,0.143,0.097,0.243,0.097
			C30.416,107.038,30.494,107.004,30.554,106.938z M32.715,105.849l-2.158,3.686l-0.529-0.005l2.158-3.682H32.715z M31.762,109.305
			c-0.173-0.154-0.259-0.355-0.259-0.604s0.086-0.451,0.259-0.606c0.173-0.155,0.4-0.232,0.682-0.232
			c0.281,0,0.507,0.077,0.678,0.232c0.172,0.155,0.258,0.357,0.258,0.606s-0.086,0.45-0.258,0.604
			c-0.171,0.153-0.397,0.23-0.678,0.23C32.162,109.536,31.935,109.459,31.762,109.305z M32.679,108.956
			c0.06-0.066,0.089-0.151,0.089-0.255c0-0.11-0.029-0.197-0.089-0.262c-0.06-0.064-0.139-0.097-0.235-0.097
			c-0.101,0-0.182,0.032-0.243,0.097c-0.062,0.065-0.092,0.152-0.092,0.262c0,0.104,0.03,0.188,0.092,0.255
			c0.061,0.066,0.142,0.1,0.243,0.1C32.54,109.056,32.619,109.022,32.679,108.956z"/>
	</g>
</g>
<g>
	<circle class="st3" cx="53.523" cy="107.741" r="4.7"/>
	<g>
		<path class="st1" d="M51.29,109.487v-2.779h-0.641v-0.806l1.416-0.005v3.59H51.29z"/>
		<path class="st1" d="M52.879,107.287c-0.173-0.153-0.259-0.355-0.259-0.604c0-0.249,0.086-0.45,0.259-0.604
			c0.173-0.153,0.4-0.23,0.681-0.23c0.281,0,0.508,0.077,0.679,0.23c0.171,0.154,0.258,0.355,0.258,0.604
			c0,0.249-0.086,0.451-0.258,0.604c-0.171,0.154-0.398,0.23-0.679,0.23C53.279,107.518,53.052,107.441,52.879,107.287z
			 M53.8,106.938c0.06-0.066,0.09-0.151,0.09-0.255c0-0.107-0.03-0.192-0.09-0.257c-0.06-0.064-0.138-0.097-0.235-0.097
			c-0.103,0-0.185,0.031-0.245,0.094c-0.06,0.063-0.09,0.15-0.09,0.259c0,0.107,0.031,0.193,0.092,0.257
			c0.062,0.065,0.143,0.097,0.243,0.097C53.662,107.038,53.74,107.004,53.8,106.938z M55.961,105.849l-2.158,3.686l-0.529-0.005
			l2.158-3.682H55.961z M55.008,109.305c-0.173-0.154-0.259-0.355-0.259-0.604s0.086-0.451,0.259-0.606
			c0.173-0.155,0.4-0.232,0.682-0.232c0.281,0,0.507,0.077,0.678,0.232c0.172,0.155,0.258,0.357,0.258,0.606
			s-0.086,0.45-0.258,0.604c-0.171,0.153-0.397,0.23-0.678,0.23C55.408,109.536,55.181,109.459,55.008,109.305z M55.925,108.956
			c0.06-0.066,0.089-0.151,0.089-0.255c0-0.11-0.029-0.197-0.089-0.262c-0.06-0.064-0.139-0.097-0.235-0.097
			c-0.101,0-0.182,0.032-0.243,0.097c-0.062,0.065-0.092,0.152-0.092,0.262c0,0.104,0.03,0.188,0.092,0.255
			c0.061,0.066,0.142,0.1,0.243,0.1C55.786,109.056,55.865,109.022,55.925,108.956z"/>
	</g>
</g>
<g>
	<circle class="st3" cx="76.769" cy="107.741" r="4.7"/>
	<g>
		<path class="st1" d="M74.536,109.487v-2.779h-0.641v-0.806l1.416-0.005v3.59H74.536z"/>
		<path class="st1" d="M76.125,107.287c-0.173-0.153-0.259-0.355-0.259-0.604c0-0.249,0.087-0.45,0.259-0.604
			c0.173-0.153,0.4-0.23,0.681-0.23c0.281,0,0.508,0.077,0.679,0.23c0.171,0.154,0.258,0.355,0.258,0.604
			c0,0.249-0.087,0.451-0.258,0.604c-0.171,0.154-0.398,0.23-0.679,0.23C76.525,107.518,76.298,107.441,76.125,107.287z
			 M77.046,106.938c0.06-0.066,0.09-0.151,0.09-0.255c0-0.107-0.03-0.192-0.09-0.257c-0.06-0.064-0.138-0.097-0.235-0.097
			c-0.103,0-0.185,0.031-0.245,0.094c-0.06,0.063-0.09,0.15-0.09,0.259c0,0.107,0.031,0.193,0.092,0.257
			c0.062,0.065,0.143,0.097,0.243,0.097C76.908,107.038,76.986,107.004,77.046,106.938z M79.207,105.849l-2.158,3.686l-0.529-0.005
			l2.158-3.682H79.207z M78.254,109.305c-0.173-0.154-0.259-0.355-0.259-0.604s0.086-0.451,0.259-0.606
			c0.173-0.155,0.4-0.232,0.682-0.232c0.281,0,0.507,0.077,0.678,0.232c0.172,0.155,0.258,0.357,0.258,0.606
			s-0.086,0.45-0.258,0.604c-0.171,0.153-0.397,0.23-0.678,0.23C78.654,109.536,78.427,109.459,78.254,109.305z M79.171,108.956
			c0.06-0.066,0.089-0.151,0.089-0.255c0-0.11-0.029-0.197-0.089-0.262c-0.06-0.064-0.139-0.097-0.235-0.097
			c-0.101,0-0.182,0.032-0.243,0.097c-0.062,0.065-0.092,0.152-0.092,0.262c0,0.104,0.03,0.188,0.092,0.255
			c0.061,0.066,0.142,0.1,0.243,0.1C79.032,109.056,79.111,109.022,79.171,108.956z"/>
	</g>
</g>
<g>
	<circle class="st3" cx="100.015" cy="107.741" r="4.7"/>
	<g>
		<path class="st1" d="M97.782,109.487v-2.779h-0.641v-0.806l1.416-0.005v3.59H97.782z"/>
		<path class="st1" d="M99.371,107.287c-0.173-0.153-0.259-0.355-0.259-0.604c0-0.249,0.086-0.45,0.259-0.604
			c0.173-0.153,0.4-0.23,0.681-0.23c0.281,0,0.508,0.077,0.679,0.23c0.171,0.154,0.258,0.355,0.258,0.604
			c0,0.249-0.086,0.451-0.258,0.604c-0.171,0.154-0.398,0.23-0.679,0.23C99.771,107.518,99.544,107.441,99.371,107.287z
			 M100.292,106.938c0.06-0.066,0.09-0.151,0.09-0.255c0-0.107-0.03-0.192-0.09-0.257c-0.06-0.064-0.138-0.097-0.235-0.097
			c-0.103,0-0.185,0.031-0.245,0.094c-0.06,0.063-0.09,0.15-0.09,0.259c0,0.107,0.031,0.193,0.092,0.257
			c0.062,0.065,0.143,0.097,0.243,0.097C100.154,107.038,100.232,107.004,100.292,106.938z M102.453,105.849l-2.158,3.686
			l-0.529-0.005l2.158-3.682H102.453z M101.5,109.305c-0.173-0.154-0.259-0.355-0.259-0.604s0.086-0.451,0.259-0.606
			c0.173-0.155,0.4-0.232,0.682-0.232c0.281,0,0.507,0.077,0.678,0.232c0.172,0.155,0.258,0.357,0.258,0.606
			s-0.086,0.45-0.258,0.604c-0.171,0.153-0.397,0.23-0.678,0.23C101.9,109.536,101.673,109.459,101.5,109.305z M102.417,108.956
			c0.06-0.066,0.089-0.151,0.089-0.255c0-0.11-0.029-0.197-0.089-0.262c-0.06-0.064-0.139-0.097-0.235-0.097
			c-0.101,0-0.182,0.032-0.243,0.097c-0.062,0.065-0.092,0.152-0.092,0.262c0,0.104,0.03,0.188,0.092,0.255
			c0.061,0.066,0.142,0.1,0.243,0.1C102.278,109.056,102.357,109.022,102.417,108.956z"/>
	</g>
</g>
<g>
	<circle class="st3" cx="123.261" cy="107.741" r="4.7"/>
	<g>
		<path class="st1" d="M121.028,109.487v-2.779h-0.641v-0.806l1.416-0.005v3.59H121.028z"/>
		<path class="st1" d="M122.617,107.287c-0.173-0.153-0.259-0.355-0.259-0.604c0-0.249,0.086-0.45,0.259-0.604
			c0.173-0.153,0.4-0.23,0.681-0.23s0.508,0.077,0.679,0.23c0.171,0.154,0.258,0.355,0.258,0.604c0,0.249-0.086,0.451-0.258,0.604
			c-0.171,0.154-0.398,0.23-0.679,0.23S122.79,107.441,122.617,107.287z M123.538,106.938c0.06-0.066,0.09-0.151,0.09-0.255
			c0-0.107-0.03-0.192-0.09-0.257c-0.06-0.064-0.138-0.097-0.235-0.097c-0.103,0-0.185,0.031-0.245,0.094
			c-0.06,0.063-0.09,0.15-0.09,0.259c0,0.107,0.031,0.193,0.092,0.257c0.062,0.065,0.143,0.097,0.243,0.097
			C123.4,107.038,123.478,107.004,123.538,106.938z M125.699,105.849l-2.158,3.686l-0.529-0.005l2.158-3.682H125.699z
			 M124.746,109.305c-0.173-0.154-0.259-0.355-0.259-0.604s0.087-0.451,0.259-0.606c0.173-0.155,0.4-0.232,0.682-0.232
			c0.281,0,0.507,0.077,0.678,0.232c0.172,0.155,0.258,0.357,0.258,0.606s-0.086,0.45-0.258,0.604
			c-0.171,0.153-0.397,0.23-0.678,0.23C125.146,109.536,124.919,109.459,124.746,109.305z M125.663,108.956
			c0.06-0.066,0.089-0.151,0.089-0.255c0-0.11-0.029-0.197-0.089-0.262c-0.06-0.064-0.139-0.097-0.235-0.097
			c-0.101,0-0.182,0.032-0.243,0.097c-0.062,0.065-0.092,0.152-0.092,0.262c0,0.104,0.03,0.188,0.092,0.255
			c0.061,0.066,0.142,0.1,0.243,0.1C125.524,109.056,125.603,109.022,125.663,108.956z"/>
	</g>
</g>
<g>
	<circle class="st3" cx="146.507" cy="107.741" r="4.7"/>
	<g>
		<path class="st1" d="M144.274,109.487v-2.779h-0.641v-0.806l1.416-0.005v3.59H144.274z"/>
		<path class="st1" d="M145.863,107.287c-0.173-0.153-0.259-0.355-0.259-0.604c0-0.249,0.086-0.45,0.259-0.604
			c0.173-0.153,0.4-0.23,0.681-0.23c0.281,0,0.508,0.077,0.679,0.23c0.171,0.154,0.258,0.355,0.258,0.604
			c0,0.249-0.086,0.451-0.258,0.604c-0.171,0.154-0.398,0.23-0.679,0.23C146.263,107.518,146.036,107.441,145.863,107.287z
			 M146.784,106.938c0.06-0.066,0.09-0.151,0.09-0.255c0-0.107-0.03-0.192-0.09-0.257c-0.06-0.064-0.138-0.097-0.235-0.097
			c-0.103,0-0.185,0.031-0.245,0.094c-0.06,0.063-0.09,0.15-0.09,0.259c0,0.107,0.031,0.193,0.092,0.257
			c0.062,0.065,0.143,0.097,0.243,0.097C146.646,107.038,146.724,107.004,146.784,106.938z M148.945,105.849l-2.158,3.686
			l-0.529-0.005l2.158-3.682H148.945z M147.992,109.305c-0.173-0.154-0.259-0.355-0.259-0.604s0.087-0.451,0.259-0.606
			c0.173-0.155,0.4-0.232,0.682-0.232c0.281,0,0.507,0.077,0.678,0.232c0.172,0.155,0.258,0.357,0.258,0.606
			s-0.086,0.45-0.258,0.604c-0.171,0.153-0.397,0.23-0.678,0.23C148.392,109.536,148.165,109.459,147.992,109.305z M148.909,108.956
			c0.06-0.066,0.089-0.151,0.089-0.255c0-0.11-0.029-0.197-0.089-0.262c-0.06-0.064-0.139-0.097-0.235-0.097
			c-0.101,0-0.182,0.032-0.243,0.097c-0.062,0.065-0.092,0.152-0.092,0.262c0,0.104,0.03,0.188,0.092,0.255
			c0.061,0.066,0.142,0.1,0.243,0.1C148.77,109.056,148.849,109.022,148.909,108.956z"/>
	</g>
</g>
<g>
	<circle class="st3" cx="169.753" cy="107.741" r="4.7"/>
	<g>
		<path class="st1" d="M167.52,109.487v-2.779h-0.641v-0.806l1.416-0.005v3.59H167.52z"/>
		<path class="st1" d="M169.109,107.287c-0.173-0.153-0.259-0.355-0.259-0.604c0-0.249,0.087-0.45,0.259-0.604
			c0.173-0.153,0.4-0.23,0.681-0.23s0.508,0.077,0.679,0.23c0.171,0.154,0.258,0.355,0.258,0.604c0,0.249-0.087,0.451-0.258,0.604
			c-0.171,0.154-0.398,0.23-0.679,0.23S169.282,107.441,169.109,107.287z M170.03,106.938c0.06-0.066,0.09-0.151,0.09-0.255
			c0-0.107-0.03-0.192-0.09-0.257c-0.06-0.064-0.138-0.097-0.235-0.097c-0.103,0-0.185,0.031-0.245,0.094
			c-0.06,0.063-0.09,0.15-0.09,0.259c0,0.107,0.031,0.193,0.092,0.257c0.062,0.065,0.143,0.097,0.243,0.097
			C169.892,107.038,169.97,107.004,170.03,106.938z M172.191,105.849l-2.158,3.686l-0.529-0.005l2.158-3.682H172.191z
			 M171.238,109.305c-0.173-0.154-0.259-0.355-0.259-0.604s0.087-0.451,0.259-0.606c0.173-0.155,0.4-0.232,0.682-0.232
			c0.281,0,0.507,0.077,0.678,0.232c0.172,0.155,0.258,0.357,0.258,0.606s-0.086,0.45-0.258,0.604
			c-0.171,0.153-0.397,0.23-0.678,0.23C171.638,109.536,171.411,109.459,171.238,109.305z M172.155,108.956
			c0.06-0.066,0.089-0.151,0.089-0.255c0-0.11-0.029-0.197-0.089-0.262c-0.06-0.064-0.139-0.097-0.235-0.097
			c-0.101,0-0.182,0.032-0.243,0.097c-0.062,0.065-0.092,0.152-0.092,0.262c0,0.104,0.03,0.188,0.092,0.255
			c0.061,0.066,0.142,0.1,0.243,0.1C172.016,109.056,172.095,109.022,172.155,108.956z"/>
	</g>
</g>
<g>
	<circle class="st3" cx="192.999" cy="107.741" r="4.7"/>
	<g>
		<path class="st1" d="M190.766,109.487v-2.779h-0.641v-0.806l1.416-0.005v3.59H190.766z"/>
		<path class="st1" d="M192.355,107.287c-0.173-0.153-0.259-0.355-0.259-0.604c0-0.249,0.087-0.45,0.259-0.604
			c0.173-0.153,0.4-0.23,0.681-0.23s0.508,0.077,0.679,0.23c0.171,0.154,0.258,0.355,0.258,0.604c0,0.249-0.086,0.451-0.258,0.604
			c-0.171,0.154-0.398,0.23-0.679,0.23S192.528,107.441,192.355,107.287z M193.276,106.938c0.06-0.066,0.09-0.151,0.09-0.255
			c0-0.107-0.03-0.192-0.09-0.257c-0.06-0.064-0.138-0.097-0.235-0.097c-0.103,0-0.185,0.031-0.245,0.094
			c-0.06,0.063-0.09,0.15-0.09,0.259c0,0.107,0.031,0.193,0.092,0.257c0.062,0.065,0.143,0.097,0.243,0.097
			C193.138,107.038,193.216,107.004,193.276,106.938z M195.437,105.849l-2.158,3.686l-0.529-0.005l2.158-3.682H195.437z
			 M194.484,109.305c-0.173-0.154-0.259-0.355-0.259-0.604s0.086-0.451,0.259-0.606c0.173-0.155,0.4-0.232,0.682-0.232
			c0.281,0,0.507,0.077,0.678,0.232c0.172,0.155,0.258,0.357,0.258,0.606s-0.086,0.45-0.258,0.604
			c-0.171,0.153-0.397,0.23-0.678,0.23C194.884,109.536,194.657,109.459,194.484,109.305z M195.401,108.956
			c0.06-0.066,0.089-0.151,0.089-0.255c0-0.11-0.029-0.197-0.089-0.262c-0.06-0.064-0.139-0.097-0.235-0.097
			c-0.101,0-0.182,0.032-0.243,0.097c-0.062,0.065-0.092,0.152-0.092,0.262c0,0.104,0.03,0.188,0.092,0.255
			c0.061,0.066,0.142,0.1,0.243,0.1C195.262,109.056,195.341,109.022,195.401,108.956z"/>
	</g>
</g>
</svg>
